<svg width="64" height="65" viewBox="0 0 64 65" fill="none" xmlns="http://www.w3.org/2000/svg">
<path d="M46.934 29.3267L43.174 25.5667L52.6673 16.1L56.4273 19.86C56.134 19.94 46.934 29.3267 46.934 29.3267ZM34.6673 8.5H29.334V21.8333H34.6673V8.5ZM17.0673 29.3267L20.8273 25.5667L11.3607 16.0733L7.57398 19.86C7.86732 19.94 17.0673 29.3267 17.0673 29.3267ZM53.334 37.8333H44.214C42.1607 42.5267 37.4407 45.8333 32.0007 45.8333C26.5607 45.8333 21.8407 42.5267 19.7873 37.8333H10.6673V51.1667H53.334V37.8333ZM53.334 32.5C56.2673 32.5 58.6673 34.9 58.6673 37.8333V51.1667C58.6673 54.1 56.2673 56.5 53.334 56.5H10.6673C7.73398 56.5 5.33398 54.1 5.33398 51.1667V37.8333C5.33398 34.9 7.73398 32.5 10.6673 32.5H24.0007C24.0007 36.9267 27.574 40.5 32.0007 40.5C36.4273 40.5 40.0007 36.9267 40.0007 32.5H53.334Z" fill="#B8B8B8"/>
</svg>
